<svg id="visual" viewBox="0 0 900 600" width="900" height="600" xmlns="http://www.w3.org/2000/svg" xmlns:xlink="http://www.w3.org/1999/xlink" version="1.1"><rect x="0" y="0" width="900" height="600" fill="#ffffff"></rect><path d="M0 196L21.5 202.3C43 208.7 86 221.3 128.8 228.3C171.7 235.3 214.3 236.7 257.2 231.7C300 226.7 343 215.3 385.8 201.8C428.7 188.3 471.3 172.7 514.2 169C557 165.3 600 173.7 642.8 177C685.7 180.3 728.3 178.7 771.2 186.2C814 193.7 857 210.3 878.5 218.7L900 227L900 0L878.5 0C857 0 814 0 771.2 0C728.3 0 685.7 0 642.8 0C600 0 557 0 514.2 0C471.3 0 428.7 0 385.8 0C343 0 300 0 257.2 0C214.3 0 171.7 0 128.8 0C86 0 43 0 21.5 0L0 0Z" fill="#eaf5ff"></path><path d="M0 176L21.5 178.2C43 180.3 86 184.7 128.8 187.5C171.7 190.3 214.3 191.7 257.2 192C300 192.3 343 191.7 385.8 179.3C428.7 167 471.3 143 514.2 136.2C557 129.3 600 139.7 642.8 142.5C685.7 145.3 728.3 140.7 771.2 136C814 131.3 857 126.7 878.5 124.3L900 122L900 0L878.5 0C857 0 814 0 771.2 0C728.3 0 685.7 0 642.8 0C600 0 557 0 514.2 0C471.3 0 428.7 0 385.8 0C343 0 300 0 257.2 0C214.3 0 171.7 0 128.8 0C86 0 43 0 21.5 0L0 0Z" fill="#d4e3ee"></path><path d="M0 155L21.5 144.5C43 134 86 113 128.8 107C171.7 101 214.3 110 257.2 118.8C300 127.7 343 136.3 385.8 142C428.7 147.7 471.3 150.3 514.2 142.2C557 134 600 115 642.8 105.3C685.7 95.7 728.3 95.3 771.2 100.5C814 105.7 857 116.3 878.5 121.7L900 127L900 0L878.5 0C857 0 814 0 771.2 0C728.3 0 685.7 0 642.8 0C600 0 557 0 514.2 0C471.3 0 428.7 0 385.8 0C343 0 300 0 257.2 0C214.3 0 171.7 0 128.8 0C86 0 43 0 21.5 0L0 0Z" fill="#bfd1dc"></path><path d="M0 94L21.5 94C43 94 86 94 128.8 92.2C171.7 90.3 214.3 86.7 257.2 85.8C300 85 343 87 385.8 91C428.7 95 471.3 101 514.2 100.3C557 99.7 600 92.3 642.8 88.3C685.7 84.3 728.3 83.7 771.2 88.5C814 93.3 857 103.7 878.5 108.8L900 114L900 0L878.5 0C857 0 814 0 771.2 0C728.3 0 685.7 0 642.8 0C600 0 557 0 514.2 0C471.3 0 428.7 0 385.8 0C343 0 300 0 257.2 0C214.3 0 171.7 0 128.8 0C86 0 43 0 21.5 0L0 0Z" fill="#a9bfcb"></path><path d="M0 67L21.5 61.5C43 56 86 45 128.8 45.7C171.7 46.3 214.3 58.7 257.2 64.2C300 69.7 343 68.3 385.8 62.3C428.7 56.3 471.3 45.7 514.2 43.2C557 40.7 600 46.3 642.8 52.2C685.7 58 728.3 64 771.2 65.8C814 67.7 857 65.3 878.5 64.2L900 63L900 0L878.5 0C857 0 814 0 771.2 0C728.3 0 685.7 0 642.8 0C600 0 557 0 514.2 0C471.3 0 428.7 0 385.8 0C343 0 300 0 257.2 0C214.3 0 171.7 0 128.8 0C86 0 43 0 21.5 0L0 0Z" fill="#94aeb9"></path></svg>